<?xml version="1.0" encoding="UTF-8" standalone="no"?>
<svg
   xmlns:dc="http://purl.org/dc/elements/1.1/"
   xmlns:cc="http://creativecommons.org/ns#"
   xmlns:rdf="http://www.w3.org/1999/02/22-rdf-syntax-ns#"
   xmlns:svg="http://www.w3.org/2000/svg"
   xmlns="http://www.w3.org/2000/svg"
   viewBox="0 0 173.03751 244.73958"
   id="svg2"
   height="244.73958mm"
   width="173.03751mm"
   version="1.0">
  <metadata
     id="metadata19">
    <rdf:RDF>
      <cc:Work
         rdf:about="">
        <dc:format>image/svg+xml</dc:format>
        <dc:type
           rdf:resource="http://purl.org/dc/dcmitype/StillImage" />
      </cc:Work>
    </rdf:RDF>
  </metadata>
  <defs
     id="defs4">
    <pattern
       y="0"
       x="0"
       height="6"
       width="6"
       patternUnits="userSpaceOnUse"
       id="WMFhbasepattern" />
  </defs>
  <path
     id="path7"
     d="m 98.248611,244.47499 0,0 -0.176389,-5.11527 -0.440831,-11.46528 -0.176671,-6.26195 0,-5.64444 0,-2.38111 0.08834,-1.94028 0.176388,-1.49916 0.08805,-0.44112 0.08834,-0.35278 0,0 1.234723,-2.46944 0.793608,-1.49945 0.705561,-1.58721 0.6175,-1.58779 0.44083,-1.49916 0.0883,-0.70556 0,-0.6175 0,-0.61722 -0.17639,-0.52917 0,0 -0.35278,-0.88194 -0.44083,-0.61722 -0.35278,-0.35278 -0.44111,-0.26472 -0.352783,-0.0881 -0.352778,0 -0.705555,0.0881 0,0 -0.176389,0.0881 -0.264724,0.17667 -0.61722,0.79361 -0.705556,1.05833 -0.881944,1.32306 -0.793609,1.49917 -0.705556,1.5875 -0.529449,1.49944 -0.440831,1.49917 0,0 -0.08805,0.79361 -0.08834,1.05833 -0.08834,2.55778 0,3.08666 0.08834,3.35168 0.176389,6.79083 0,2.91027 0,2.38139 0,0 -0.176389,9.87778 -0.08834,5.99722 5.027224,0 z"
     style="fill:#e6e6e6;fill-opacity:1;fill-rule:nonzero;stroke:#666666;stroke-width:0.35277778px;stroke-linecap:round;stroke-linejoin:round;stroke-miterlimit:4;stroke-dasharray:none;stroke-opacity:1" />
  <path
     id="path9"
     d="m 88.988053,244.47499 0,0 1.499447,-14.19916 1.058333,-11.99445 0.441114,-5.55639 0.352777,-4.58611 0,0 0.264443,-5.7325 0.08834,-5.29166 0,-4.85084 -0.08834,-4.40972 -0.176389,-7.67278 -0.08805,-3.35167 0,-2.91027 0,0 0,-1.49917 -0.08834,-1.58778 -0.264442,-3.70388 -0.352778,-3.96889 -0.441113,-3.9689 -0.881945,-7.31999 -0.352778,-2.82223 -0.08805,-1.94027 0,0 -0.08834,-7.67306 -0.08834,-4.32139 0.08834,-2.02861 0.08834,-1.85194 0,0 0,-0.97028 0,-0.97 -0.08834,-2.46945 -0.08834,-1.32277 0.08834,-1.49945 0.08834,-1.49944 0.176107,-1.58722 0.352777,-1.58778 0.529449,-1.67556 0.705556,-1.67555 0.881662,-1.67584 0.529449,-0.88194 0.61722,-0.79389 0.705556,-0.88166 0.705555,-0.7939 0.881945,-0.88194 0.881944,-0.79361 0.969998,-0.88223 1.058333,-0.7936 0,0 3.792497,-2.82223 2.5575,-2.02861 1.58778,-1.49916 0.52889,-0.52917 0.44111,-0.44111 0.17639,-0.440835 0.17639,-0.264725 0.17639,-0.61722 0.17639,-0.61722 0.17639,-0.352777 0.26472,-0.441114 0,0 0.26444,-0.529166 0.17639,-0.529167 0.35278,-1.146669 0.17639,-1.23444 0.17639,-1.323058 0.26472,-1.146386 0.26444,-1.146669 0.26445,-0.441114 0.26472,-0.440831 0.35278,-0.440831 0.44083,-0.264724 0,0 1.67583,-0.793609 2.91028,-1.058333 3.70445,-1.411112 4.23333,-1.411111 4.145,-1.323057 3.88056,-1.058334 1.76388,-0.440831 1.41112,-0.264724 1.14666,-0.176389 0.88167,0 0,0 1.67583,0.264442 2.11667,0.617502 2.5575,0.881945 2.73417,0.969997 2.64583,1.235005 2.64583,1.322775 1.14639,0.61722 1.05833,0.705556 0.97028,0.617502 0.79361,0.705556 0,0 3.43973,3.086946 3.7925,3.527778 1.58722,1.675554 1.41111,1.499446 0.52945,0.705556 0.35277,0.528884 0.26445,0.529452 0.0883,0.44083 0,0 -0.0883,0.70555 -0.26445,0.70556 -0.35277,0.70555 -0.35278,0.61751 -0.70556,0.96999 -0.35278,0.35278 0,0 0.0881,0.26444 0.0881,0.35278 0.26473,0.26473 0.35277,0.17639 0.61751,0.0883 0.7936,-0.0883 1.14639,-0.35278 0,0 1.14667,-0.52917 0.88194,-0.6175 0.70556,-0.61722 0.52917,-0.61722 0.35277,-0.70556 0.26445,-0.6175 0.17667,-0.6175 0,-0.61722 0,0 -0.0883,-0.17639 -0.0883,-0.35278 -0.61722,-0.970277 -2.29306,-2.998329 -3.175,-3.968891 -3.61583,-4.497776 -7.14389,-8.731391 -2.64583,-3.351389 -0.79361,-1.146669 -0.52945,-0.793609 0,0 -0.26444,-0.617502 -0.17639,-0.61722 -0.0881,-0.705555 -0.0883,-0.793892 0,-1.675553 0.17639,-1.763889 0.35277,-3.880555 0.0881,-2.028331 0,-2.028614 0,0 -0.0881,-0.97028 -0.17638,-1.058333 -0.44112,-1.939996 -0.61722,-1.852224 -0.61722,-1.763889 -0.70555,-1.411111 -0.52945,-1.146669 -0.52889,-0.969998 0,0 -0.17667,-0.705555 -0.70555,-1.940278 -1.14639,-2.910276 -0.79361,-1.852224 -0.97028,-1.940278 -1.05833,-2.20472 -1.23472,-2.205002 -1.41112,-2.381109 -1.5875,-2.469444 -1.76388,-2.55778 -1.94028,-2.557639 -2.11667,-2.557639 -2.38111,-2.557639 -2.55778,-2.469445 -2.73388,-2.38125 -1.49945,-1.146527 -1.49945,-1.146528 -1.58722,-1.146528 -1.58778,-1.058333 -1.67555,-1.0583335 -1.76389,-0.9701389 -1.76389,-0.9701389 -1.85222,-0.9701389 -1.94,-0.79375 L 108.30278,4.6742994 106.27416,3.9687438 104.1575,3.2631883 102.04083,2.6458272 99.748058,2.028466 97.45472,1.5874938 95.073611,1.1465216 92.604167,0.79374382 90.134722,0.52916048 87.576942,0.3527716 84.931391,0.26457715 82.197222,0.17638271 79.375,0.26457715 76.552778,0.44096604 73.642502,0.70554937 70.555556,1.0583272 l -2.998612,0.5291666 -3.175,0.5291667 -3.263335,0.7055555 0,0 -3.175,0.79375 -3.175,0.79375 -2.998329,0.79375 -2.822222,0.9701389 -2.822222,0.8819445 -2.646116,0.9701389 -2.557498,0.9701389 -2.469444,1.0583328 -2.381391,1.058334 -2.20472,1.058333 -2.20472,1.146528 -2.116667,1.146528 -1.940419,1.146527 -1.940278,1.234723 -1.763889,1.234722 -1.763888,1.234722 -1.5875,1.234722 -1.5875,1.322917 -1.499306,1.234722 -1.322917,1.322917 -1.322916,1.322917 -1.322917,1.322916 -1.146528,1.411252 -1.146528,1.322776 -0.970138,1.411111 -0.9701393,1.322776 -0.9701389,1.411111 -0.79375,1.411111 -1.5875,2.734169 -1.2347222,2.822222 -1.1465278,2.734169 -0.8819445,2.822222 -0.79375,2.645551 -0.5291666,2.646116 -0.44097226,2.645551 -0.35277777,2.55778 -0.17638889,2.469444 -0.0881944,2.293056 -0.0881944,2.293055 0.0881944,2.116667 0.17638889,3.880556 0.17638889,3.263335 0.17638889,2.557498 0,0 0.17638889,2.469444 0.44097226,2.998612 0.6173611,3.439442 0.79375,3.880555 1.0583334,4.057227 1.1465277,4.321387 1.4111111,4.409717 1.4993056,4.40973 1.6756944,4.49805 1.7638885,4.23334 1.940278,4.05666 0.970139,1.94056 0.970139,1.85194 1.058333,1.76389 1.058334,1.67584 1.058333,1.49916 1.146528,1.41111 1.058333,1.32306 1.146528,1.14639 1.146528,0.97028 1.146527,0.79361 0,0 1.146528,0.7936 1.146528,0.88223 1.234722,0.88166 1.146528,1.05834 2.381109,2.205 2.381391,2.46944 2.293055,2.64584 2.205003,2.64583 2.116666,2.73389 2.028331,2.82222 1.852225,2.64611 1.675553,2.5575 1.5875,2.38139 1.323058,2.11667 1.851942,3.35111 0.529167,1.05833 0.264442,0.6175 0,0 0.176671,0.44083 0.264442,0.61751 0.793892,1.76388 1.058333,2.29306 0.528884,1.41111 0.529449,1.41111 0.440831,1.5875 0.440831,1.67584 0.352778,1.85194 0.264725,1.85194 0.08805,1.85223 -0.08805,2.02833 -0.176389,2.02861 -0.441114,2.11667 0,0 -1.322775,5.55639 -1.675553,7.76111 -3.880556,18.25611 -4.762782,23.10694 45.155555,0 z"
     style="fill:#e6e6e6;fill-opacity:1;fill-rule:nonzero;stroke:#666666;stroke-width:0.35277778px;stroke-linecap:round;stroke-linejoin:round;stroke-miterlimit:4;stroke-dasharray:none;stroke-opacity:1" />
  <path
     id="path11"
     d="m 112.09528,205.05194 0,0 -0.26472,-0.0881 -0.35278,0 -0.70556,0.0881 -0.79361,0.17667 -0.79389,0.1761 -0.88194,0.26473 -0.79361,0.17639 -0.79389,0 -0.35278,-0.0883 -0.35278,-0.088 0,0 -0.70555,-0.17639 -0.61722,-0.0883 -0.61751,0.0883 -0.6175,0.0883 -1.14638,0.17611 -0.61751,0 -0.52888,-0.088 0,0 1.14639,-0.52917 0.7936,-0.35278 0.7939,-0.26444 0.88194,-0.26472 0.79361,-0.0881 0.88223,0 0.35277,0.0881 0.35278,0.0881 0,0 0.26444,0.0883 0.35278,0.0883 0.70556,-0.0883 0.70555,-0.0883 0.79389,-0.26444 0.88167,-0.17639 0.79389,-0.17639 0.70555,-0.0883 0.70556,0.0883 0,0 0.61722,0.0883 0.70555,0 0.61751,0 0.6175,-0.17668 1.14638,-0.1761 0.52917,-0.0883 0.35278,0.0883 0,0 -1.05833,0.52888 -1.5875,0.70556 -0.79361,0.26472 -0.79389,0.17639 -0.70556,0 -0.35278,0 -0.26444,-0.0883 0,0 z"
     style="fill:none;stroke:#666666;stroke-width:0.70555556px;stroke-linecap:round;stroke-linejoin:round;stroke-miterlimit:4;stroke-dasharray:none;stroke-opacity:1" />
  <path
     id="path13"
     d="m 151.34167,136.96582 0,0 0.17639,-0.0881 0.17638,-0.0881 0.17639,-0.44112 0.17639,-0.70555 0.17639,-0.88195 0.17639,-2.20472 0.088,-2.64611 0.17667,-4.93889 0.0881,-1.67555 0.0881,-0.44112 0.0883,-0.1761 0,0 0.0883,0 0.0881,0.088 0.0881,0.35278 0.17667,1.49916 0.088,4.41001 0.17639,4.58611 0.17639,1.58722 0.088,0.44111 0.0883,0.26444 0,0 0.88194,0.44111 0.61751,0.35278 0.70555,0.26444 0.79361,0.0883 0.44083,0 0.52945,-0.0883 0.44083,-0.1761 0.44083,-0.17667 0.52945,-0.35278 0.44083,-0.35278 0,0 0.44083,-0.52888 0.35278,-0.52945 0.26473,-0.61722 0.17639,-0.70556 0.0883,-0.61722 0,-0.70555 -0.17667,-1.41111 -0.26444,-1.32306 -0.35278,-1.23472 -0.52917,-1.76389 0,0 -0.44083,-2.11667 -0.6175,-3.61611 -0.26472,-1.94 -0.0881,-1.76389 0,-1.58778 0.0881,-0.61722 0.0883,-0.44111 0,0 0.44111,-0.88167 0.35278,-0.79389 0.88166,-1.5875 0.26473,-0.6175 0.26472,-0.61722 0,-0.52917 -0.0883,-0.26472 -0.17639,-0.17611 0,0 -0.17639,-0.0883 -0.44111,0 -1.58722,0.17639 -2.46945,0.44083 -3.08694,0.70555 -7.67306,1.67584 -8.81944,2.02861 -16.93334,3.96861 -5.99722,1.32306 -2.02833,0.35278 -1.05833,0.1761 0,0 -0.70556,0.0883 -0.97,0.26444 -0.97028,0.52945 -1.23472,0.70556 -1.23472,0.88166 -1.32306,0.97028 -1.32278,1.14638 -1.32277,1.23501 -1.323059,1.32277 -1.234722,1.41112 -1.058333,1.49944 -0.969998,1.49917 -0.882227,1.49916 -0.61722,1.58778 -0.176389,0.70556 -0.176389,0.79361 -0.176389,0.70555 0,0.79361 0,0 0,2.91056 0,0.88194 0.08805,0.70556 0.264724,0.35278 0.176389,0.17639 0.176389,0.0883 0.529167,0.0881 0.705555,0.0881 0,0 0.264442,-0.0881 0.264725,-0.0881 0.617502,-0.52945 0.793609,-0.79361 0.881944,-0.97028 1.94028,-2.55749 2.20472,-2.99861 2.29334,-2.99862 2.11667,-2.64583 0.96999,-1.14667 0.97,-0.88166 0.79389,-0.70556 0.35278,-0.17667 0.35278,-0.1761 0,0 1.67555,-0.44112 2.11667,-0.52916 5.11556,-1.05834 4.85055,-0.97028 3.175,-0.52888 0,0 2.99861,-0.35278 2.02862,-0.17667 2.11666,-0.088 2.11667,0 1.85194,0.088 0.79361,0.0883 0.6175,0.17638 0.52917,0.17639 0.35278,0.26445 0,0 0.52916,0.52944 0.61751,0.70556 1.05833,1.49916 0.97,1.41112 0.70555,1.14638 0,0 0.35278,0.44112 0.35278,0.26444 0.44111,0.26472 0.35278,0.17639 0.97,0.26444 1.05833,0.17667 0,0 0.26444,0.0881 0.26473,0.26472 0.17639,0.35278 0.0883,0.52888 0.26444,1.14667 0.0883,1.41111 0.17611,1.32278 0.17667,1.235 0.1761,0.44084 0.17668,0.35277 0.1761,0.26473 0.26473,0.1761 0,0 z"
     style="fill:#e6e6e6;fill-opacity:1;fill-rule:nonzero;stroke:#666666;stroke-width:0.35277778px;stroke-linecap:round;stroke-linejoin:round;stroke-miterlimit:4;stroke-dasharray:none;stroke-opacity:1" />
  <path
     id="path15"
     d="m 122.2375,244.47499 0,0 1.23472,-7.67305 0.97028,-6.17333 0.35278,-2.55778 0.17611,-1.94028 0,0 0,-1.5875 0,-1.76389 -0.26445,-3.43944 -0.0883,-1.58778 0,-1.41112 0.0883,-1.14638 0.0883,-0.44083 0.17611,-0.35278 0,0 0.35277,-0.6175 0.35278,-0.79361 0.79389,-1.94056 0.70556,-1.94 0.44111,-0.88222 0.35278,-0.79361 0,0 0.35278,-0.79361 0.26444,-0.97028 0.52917,-2.38139 0.35277,-1.32278 0.44084,-1.14667 0.26472,-0.52888 0.26472,-0.44112 0.35278,-0.44111 0.35278,-0.35278 0,0 0.70556,-0.44083 1.05833,-0.44083 3.08666,-1.32306 4.05695,-1.5875 4.67416,-1.94027 2.38139,-0.97028 2.29306,-1.14639 2.29305,-1.05833 2.11667,-1.14639 1.94028,-1.14667 1.67555,-1.23472 0.70556,-0.6175 0.6175,-0.52889 0.52917,-0.6175 0.44111,-0.6175 0,0 0.44083,-0.70556 0.35278,-0.70555 0.26472,-0.88167 0.17611,-0.88222 0.17667,-0.88167 0.17611,-0.97028 0.0883,-2.11666 -0.0883,-2.20472 -0.17611,-2.205 -0.26472,-2.38111 -0.35278,-2.29334 -0.88195,-4.40944 -0.79389,-3.7925 -0.35277,-1.67584 -0.17611,-1.32277 -0.0883,-1.05834 0,-0.70555 0,0 0.44112,-1.05834 0.61722,-1.23472 1.41111,-2.46944 0.70555,-1.23473 0.61722,-1.23472 0.52945,-1.05833 0.0881,-0.44083 0.0881,-0.44112 0,0 0,-0.44111 0,-0.44083 -0.17611,-0.44083 -0.0883,-0.44111 -0.52917,-0.88195 -0.70556,-0.88194 -0.7936,-0.70556 -0.88223,-0.61722 -0.52889,-0.26472 -0.44111,-0.17639 -0.52917,-0.0883 -0.52916,-0.088 0,0 -0.26444,0 -0.26473,0.088 -0.26472,0.26473 -0.26445,0.26472 -0.52916,0.70556 -0.44083,0.96999 -0.52945,1.14667 -0.52889,1.32278 -0.88222,2.82222 -0.97,2.91056 -0.88195,2.46944 -0.35277,1.05834 -0.44083,0.88166 -0.35278,0.52945 -0.26473,0.1761 -0.17639,0.0883 0,0 -0.26444,0 -0.26472,-0.0883 -0.0881,-0.26444 -0.0883,-0.44111 -0.0883,-0.44083 0.0883,-0.52917 0.17639,-1.32277 0.52916,-2.64612 0.26445,-1.05833 0.0883,-0.79361 0,0 0,-4.14528 -0.0883,-2.11667 -0.0881,-0.61722 -0.0881,-0.17639 -0.0883,0 0,0 -0.17638,0.17639 -0.35278,0.26444 -0.35278,0.44112 -0.35278,0.61722 -0.35278,0.79389 -0.35277,0.88194 -0.35278,1.05834 -0.35278,1.14638 0,0 -0.26472,1.23501 -0.35278,1.23444 -0.79361,2.38139 -0.6175,2.29305 -0.26444,1.05834 -0.17639,1.05833 0,0 0,1.23472 0,1.5875 0.0881,3.52778 -0.0881,1.76389 -0.17639,1.41111 -0.0883,0.52917 -0.1761,0.44083 -0.17668,0.26472 -0.26444,0.0881 0,0 -0.44111,0 -0.17611,-0.0881 -0.17667,-0.17639 -0.35278,-0.44111 -0.26444,-0.79361 -0.17639,-1.05833 -0.26472,-1.41111 -0.44083,-4.05695 0,0 0,-1.14667 0,-1.14638 0,-1.05834 0.17639,-1.05833 0.35277,-2.02861 0.44112,-1.94 0.52888,-1.67583 0.52945,-1.49917 0.44083,-1.235 0.17639,-0.97 0,0 0,-0.26444 0,-0.17667 -0.35278,-0.52889 -0.61722,-0.6175 -0.88222,-0.70556 -1.05834,-0.6175 -1.32277,-0.70555 -1.49945,-0.70556 -1.76389,-0.61722 -1.93999,-0.70556 -2.11667,-0.52916 -2.29334,-0.52917 -2.46944,-0.44111 -2.5575,-0.35278 -2.82222,-0.26444 -2.91028,-0.0883 -2.99889,0 0,0 -3.79222,0.17667 -3.35139,0.26445 -2.91028,0.35277 -1.32305,0.17639 -1.23473,0.26473 -1.14667,0.26444 -1.05833,0.35278 -0.97,0.44111 -0.96999,0.44083 -0.793896,0.44083 -0.705555,0.52945 -0.61722,0.61722 -0.529449,0.70556 -0.528884,0.79389 -0.441114,0.79361 -0.264442,0.88194 -0.264724,0.97 -0.264725,1.05833 -0.08805,1.14667 -0.08805,1.32278 0,1.32305 0.08805,1.41112 0.08805,1.5875 0.352778,3.35138 0.617502,3.88056 0.793609,4.32139 0,0 0.441113,1.76389 0.529167,1.49944 0.705556,1.41111 0.793608,1.23473 0.882226,1.14638 1.05833,0.97028 0.97,0.88195 1.05834,0.70555 1.14666,0.61722 1.05834,0.52945 1.05833,0.35278 1.05833,0.26444 0.97,0.17639 0.97,0 0.79389,0 0.70556,-0.17639 0,0 0.52916,-0.0883 0.17639,0 0,0 -0.0883,0.17667 -0.35278,0.26444 -0.52889,0.35278 -0.79389,0.44111 -0.88194,0.35278 -1.05833,0.35278 -1.14639,0.26444 -1.32306,0.17639 -1.32306,0.0881 -1.32277,-0.0881 -1.32278,-0.26473 -0.70555,-0.1761 -0.61751,-0.26473 -0.6175,-0.35278 -0.617218,-0.44083 -0.61722,-0.44111 -0.617502,-0.52917 0,0 1.234722,2.11667 1.322778,2.29305 1.76389,2.64584 1.05833,1.41111 1.05833,1.32306 1.23501,1.32277 1.23444,1.32278 1.32306,1.14667 1.32305,1.05833 1.32278,0.79389 0.70555,0.35278 0.70556,0.26444 0,0 2.55778,0.97 1.94,0.88223 0.70555,0.44083 0.70556,0.44083 0.52945,0.44111 0.44083,0.44111 0.35277,0.44084 0.26473,0.44083 0.17611,0.44111 0.0883,0.52917 0.17639,0.88194 0,1.05833 0,0 0,0.52917 -0.17639,0.6175 -0.17639,0.61722 -0.35278,0.61722 -0.70555,1.32306 -0.97028,1.49917 -0.88166,1.58778 -0.88223,1.67555 -0.35278,0.79389 -0.35278,0.88166 -0.26444,0.97028 -0.17639,0.88195 0,0 -0.44083,2.73389 -0.79389,4.05722 -2.29305,10.40666 -2.29306,9.87778 -0.88194,3.61612 -0.52917,1.94027 14.11111,0 z"
     style="fill:#e6e6e6;fill-opacity:1;fill-rule:nonzero;stroke:#666666;stroke-width:0.35277778px;stroke-linecap:round;stroke-linejoin:round;stroke-miterlimit:4;stroke-dasharray:none;stroke-opacity:1" />
</svg>
