<?xml version="1.0" encoding="UTF-8" standalone="no"?>
<svg
   xmlns:dc="http://purl.org/dc/elements/1.1/"
   xmlns:cc="http://creativecommons.org/ns#"
   xmlns:rdf="http://www.w3.org/1999/02/22-rdf-syntax-ns#"
   xmlns:svg="http://www.w3.org/2000/svg"
   xmlns="http://www.w3.org/2000/svg"
   viewBox="0 0 101.51181 119.32708"
   id="svg2"
   height="119.32708mm"
   width="101.51181mm"
   version="1.0">
  <metadata
     id="metadata13">
    <rdf:RDF>
      <cc:Work
         rdf:about="">
        <dc:format>image/svg+xml</dc:format>
        <dc:type
           rdf:resource="http://purl.org/dc/dcmitype/StillImage" />
      </cc:Work>
    </rdf:RDF>
  </metadata>
  <defs
     id="defs4">
    <pattern
       y="0"
       x="0"
       height="6"
       width="6"
       patternUnits="userSpaceOnUse"
       id="WMFhbasepattern" />
  </defs>
  <path
     id="path7"
     d="m 30.074164,27.428472 0,0 -0.61722,0.176389 -0.705555,0.352778 -0.705556,0.529308 -0.705555,0.705555 -0.79375,0.793609 -0.705556,0.793609 -1.499305,1.852224 -1.234723,1.852225 -1.058333,1.587218 -0.970139,1.499446 0,0 -0.352778,0.08834 -0.352777,0 -0.352778,-0.08834 -0.440972,-0.176389 -0.264584,-0.264724 -0.176389,-0.264442 -0.08819,-0.264442 0,-0.264725 0,-0.440831 0,0 0,-0.441113 0.176389,-0.441114 0.440972,-0.969997 0.617361,-0.969998 0.705556,-0.97028 1.234722,-1.763889 0.352778,-0.617502 0.08819,-0.264443 0,-0.264442 0,0 -0.264583,-1.587641 -0.352778,-2.645833 -0.440972,-3.615972 0,0 0,-0.881945 0.08819,-1.058333 0.176389,-1.411111 0.352778,-1.5875 0.440972,-1.763889 0.617361,-1.940278 0.352778,-0.970139 0.529167,-0.970139 0.440972,-0.9701387 0.617361,-0.9701389 0.705556,-0.9701388 0.705555,-0.9701389 0.79375,-0.8819445 0.881804,-0.8819444 0.97028,-0.8819445 1.146386,-0.79375 L 31.573607,2.7340278 32.808329,2.1166667 34.21944,1.5875 35.718605,1.0583333 37.306387,0.70555556 38.98194,0.44097222 l 1.852225,-0.17638889 1.939995,-0.0881944 0,0 1.94056,0 1.851943,0.17638889 1.763889,0.17638889 1.675835,0.26458333 1.499165,0.26458326 1.499164,0.4409723 1.323058,0.4409722 1.234722,0.4409722 1.234722,0.5291667 1.058334,0.6173611 1.058333,0.6173611 0.881944,0.6173611 0.881945,0.7055556 0.793609,0.6173611 0.705555,0.79375 0.705556,0.7055555 0.529449,0.7055556 0.528884,0.79375 0.882227,1.4993052 0.705555,1.499306 0.528885,1.499305 0.352778,1.322917 0.176671,1.234722 0.176106,1.146528 0,0.881945 0,0 -0.08805,2.38125 -0.264724,2.116666 -0.352778,1.852084 -0.528885,1.763888 -0.617502,1.5875 -0.705555,1.411112 -1.499165,2.822222 -0.793891,1.499164 -0.705556,1.411111 -0.705555,1.587783 -0.61722,1.763888 -0.529449,1.939996 -0.352778,2.116667 -0.264442,2.381391 -0.08834,2.645833 0,0 0.08834,1.763889 0.264442,1.763889 0.529449,1.499447 0.528885,1.499164 0.793891,1.411111 0.793891,1.234722 0.881662,1.058334 1.058333,1.058333 0.97028,0.881944 1.058334,0.793609 1.058333,0.705556 1.058333,0.529449 0.97028,0.440831 0.969998,0.264724 0.881945,0.176107 0.793608,0.08834 0,0 1.763889,-0.08834 2.293338,-0.08805 1.322776,0 1.322775,0.176389 1.411111,0.264442 1.499447,0.352778 1.499447,0.617502 0.793609,0.440831 0.705555,0.441113 0.793609,0.529167 0.705556,0.617502 0.705555,0.61722 0.793891,0.705556 0.705556,0.881944 0.705555,0.881945 0.705556,0.969997 0.61722,1.058334 0.705555,1.235004 0.617503,1.23444 0.529166,1.411111 0.61722,1.499447 0,0 6.791114,18.873611 2.293054,6.438047 -17.903612,0.0883 0,0 -0.528885,-2.293054 -1.235004,-5.115277 -0.61722,-2.645834 -0.705556,-2.381391 -0.529166,-1.675553 -0.264725,-0.441114 -0.176106,-0.176106 0,0 -0.264725,5.644444 -0.264724,4.674165 -0.352778,3.96861 -0.440831,3.61611 -0.529167,3.26333 -0.793891,3.35111 -0.881662,3.52778 -1.146669,3.96889 0,0 -1.852224,-0.26444 -5.026943,-0.52945 -3.527777,-0.35278 -4.056945,-0.26444 -4.586111,-0.17639 -4.850553,-0.088 0,0 -5.027225,0.088 -4.7625,0.17639 -4.409722,0.26444 -3.968891,0.35278 -5.908887,0.52945 -2.204861,0.26444 0,0 -1.058333,-3.43944 -0.881945,-3.35167 -0.705555,-3.35111 -0.529167,-3.61611 -0.440972,-3.79222 -0.264583,-4.321669 -0.176389,-4.7625 0,-5.37972 0,0 -0.0882,0 -0.08819,0.08805 -0.176389,0.440831 -0.440972,1.675836 -0.617361,2.381391 -0.529167,2.645551 -0.970139,5.11556 -0.440972,2.38111 -16.84513911,0.0883 0,0 0.88194441,-2.910553 2.2048611,-7.055556 1.3229167,-4.233333 1.4993056,-4.144998 1.4111111,-3.880556 0.7055555,-1.763888 0.7055556,-1.499447 0,0 0.7055555,-1.322776 0.7055556,-1.323057 0.79375,-1.146387 0.79375,-1.146669 0.881944,-0.969998 0.881945,-0.97028 1.058333,-0.793609 1.058334,-0.793891 1.058333,-0.705555 1.146528,-0.61722 1.234722,-0.441114 1.322917,-0.441113 1.411111,-0.352778 1.411111,-0.176106 1.5875,-0.176672 1.5875,0 0,0 0.970139,-0.08805 0.97028,-0.08805 0.881662,-0.264725 0.793891,-0.264724 0.793891,-0.352778 0.705556,-0.440831 0.61722,-0.529167 0.61722,-0.529166 0.529449,-0.529167 0.528884,-0.61722 0.882227,-1.323058 0.705555,-1.411111 0.528885,-1.411111 0.441113,-1.323058 0.352778,-1.322775 0.176389,-1.146669 0.08805,-0.969998 0.08834,-1.234722 0,-0.08805 -0.08834,0.264443 0,0 -1.322776,0.264442 -3.086664,0.441113 -1.763889,0.176389 -1.587782,0 -0.705556,0 -0.61722,-0.08805 -0.440972,-0.176671 -0.352778,-0.176107 0,0 -0.440972,-0.441113 -0.440972,-0.61722 -0.264583,-0.705556 -0.176389,-0.793891 -0.08819,-0.705556 -0.08819,-0.705555 0,-0.61722 0.08819,-0.529449 0,0 0,-0.440831 L 25.664583,45.861111 25.4,45.596387 25.135417,45.42028 l -0.705556,-0.352778 -0.264583,-0.264724 -0.176389,-0.264725 0,0 0,-0.264442 0.08819,-0.176389 0.176389,-0.08805 0.264584,-0.08834 0.79375,-0.176389 0.440972,-0.176388 0.440972,-0.264443 0,0 2.028472,-1.235004 1.058334,-0.61722 1.146386,-0.61722 1.058334,-0.529449 1.146668,-0.352778 1.058334,-0.264442 0.969998,-0.176389 0,0 0.705555,0.08805 0.793891,0.176672 0.793891,0.264442 0.793609,0.264442 1.5875,0.882227 1.499447,0.969997 1.411111,1.058334 1.146387,1.058333 0.881944,0.881945 0.352778,0.440831 0.176389,0.352777 0,0 0.793609,2.469445 1.146669,4.233333 0.529166,2.293338 0.529167,2.20472 0.264442,1.851942 0.176671,1.499447 0,0 0.08805,8.731109 0.08805,6.35 0,0 -0.969998,1.146669 -0.61722,0.61722 -0.264724,0.08834 -0.08805,0 0,-0.08834 0,0 -0.08834,-2.20472 L 46.213889,73.201389 46.0375,70.996387 45.773058,68.87972 45.42028,66.939724 45.155556,66.145833 44.890831,65.616667 44.626389,65.175836 44.45,64.999164 l -0.176389,0 0,0 -0.352778,0 -0.61722,0.264725 -0.705555,0.352778 -0.882227,0.529166 -0.969998,0.705556 -1.058333,0.793891 -1.058333,0.969998 -1.146669,1.058333 -1.146387,1.146669 -1.058333,1.23444 -1.146387,1.323058 -1.058333,1.411111 -0.97028,1.411111 -0.881945,1.499164 -0.793891,1.499447 -0.61722,1.5875 0,0 -0.529166,1.5875 -0.529167,1.852225 -1.058333,4.144997 -0.970139,4.674447 -0.440973,2.381109 -0.352777,2.381109 -0.352778,2.293342 -0.176389,2.20472 -0.176389,2.11666 0,1.85194 0.0882,1.76389 0.176388,1.41111 0.176389,0.61751 0.176389,0.52916 0.176389,0.44112 0.264583,0.35277 0,0 0.352778,0.35278 0.440972,0.26444 0.440973,0.17639 0.529166,0.0881 0.529167,0.0883 0.529167,0 1.234722,-0.17639 1.323058,-0.35277 1.411111,-0.52917 1.411111,-0.61722 1.411111,-0.79389 1.411111,-0.88195 1.411111,-0.88194 1.322776,-0.97 1.146669,-0.88223 1.058333,-0.96999 0.969998,-0.79389 0.705555,-0.79361 0.529167,-0.61751 0,0 0.08805,-0.35277 0.08834,-0.70556 0.264442,-2.381108 0.529449,-6.96722 0.528884,-6.879449 0.176672,-2.292773 0.176106,-0.97028 0,0 0.441114,-0.617502 0.352777,-0.528885 0.529167,-0.617502 0.617502,-0.617502 0.705556,-0.528885 0.352778,-0.176671 0.440831,-0.176106 0.440831,-0.08834 0.441113,0 0,0 0.441113,0 0.352778,0.08834 0.793609,0.264442 0.617502,0.441113 0.528885,0.440831 0.441113,0.529167 0.264442,0.441113 0.176671,0.440831 0.08805,0.264725 0,0 0.793609,10.318609 0.617502,6.879166 0.264724,2.381106 0.176107,1.05834 0,0 0.352778,0.6175 0.441113,0.79361 0.61722,0.88222 0.705556,0.88167 0.882226,0.97028 0.969998,0.97028 0.969998,0.88166 1.146669,0.88223 1.146669,0.7936 1.23444,0.70556 1.323057,0.6175 1.234723,0.44083 1.322775,0.26473 0.705556,0 0.617502,0 0.705556,-0.0883 0.617502,-0.0883 0.705555,-0.26445 0.61722,-0.26444 0,0 0.176389,-0.0883 0.176389,-0.26445 0.352778,-0.70555 0.352778,-1.05833 0.264442,-1.32306 0.264724,-1.5875 0.176389,-1.85223 0.08834,-2.02833 0,-2.11666 -0.08834,-2.381113 -0.176389,-2.381391 -0.264724,-2.469445 -0.440831,-2.557498 -0.529167,-2.55778 -0.61722,-2.469444 -0.882227,-2.381109 -0.969997,-2.381391 0,0 -1.058334,-2.20472 L 68.2625,76.905556 67.204167,75.053613 66.145833,73.377778 65.0875,71.790278 64.117502,70.467502 63.147222,69.320833 62.265278,68.2625 61.383333,67.380556 60.589724,66.675 59.795833,66.057498 59.090278,65.616667 58.473058,65.263889 57.943609,65.0875 57.502778,64.999164 57.15,65.0875 l 0,0 -0.176389,0.08834 -0.176389,0.08805 -0.264724,0.440831 -0.176107,0.617502 -0.264724,0.793609 -0.264725,1.852225 -0.264442,2.116666 -0.352778,3.968891 -0.264442,1.322776 -0.08834,0.352778 -0.08834,0.176389 0,0 -0.264442,0 -0.352778,-0.176389 -0.352778,-0.352778 -0.352778,-0.264442 -0.61722,-0.793891 -0.352777,-0.529167 0,0 -0.08834,-0.793609 -0.08834,-2.028613 -0.08805,-5.997223 -0.176389,-6.173611 -0.08834,-2.205002 -0.08805,-1.058333 0,0 -0.705555,-3.615831 -1.146387,-6.790831 -0.705555,-3.616114 -0.617503,-3.263335 -0.617502,-2.469445 -0.352778,-0.881662 -0.264442,-0.441113 0,0 -1.411111,-1.675554 -1.411111,-1.411111 -1.499447,-1.146669 -1.499164,-0.969997 -1.499165,-0.793892 -1.411111,-0.705555 -1.411111,-0.441113 -1.323058,-0.352637 -1.234722,-0.264583 -1.146669,-0.176389 -0.969998,-0.0882 -0.881944,0 -1.234722,0 -0.441114,0 0,0 z"
     style="fill:#e6e6e6;fill-opacity:1;fill-rule:nonzero;stroke:#666666;stroke-width:0.35277778px;stroke-linecap:round;stroke-linejoin:round;stroke-miterlimit:4;stroke-dasharray:none;stroke-opacity:1" />
  <path
     id="path9"
     d="m 28.663053,35.630556 0,0 1.587783,-0.08805 2.20472,-0.08834 5.203613,0 6.702778,0 0,0 0.08805,0 0.176389,0.176389 0.264442,0.617502 0.264725,0.881662 0.176388,1.146669 0.176389,1.146669 0.08805,1.058333 0,0.705556 -0.08805,0.264442 -0.08805,0.176389 0,0 -0.176671,0 -0.264442,-0.176389 -0.881945,-0.441113 -2.557498,-1.587218 -1.587782,-0.882227 -1.675553,-0.793609 -0.881945,-0.352778 -0.793608,-0.264724 -0.793892,-0.08805 -0.881944,-0.08805 0,0 -0.705556,0 -0.881944,0.176107 -0.793891,0.176671 -0.705556,0.264442 -1.587217,0.61722 -1.323058,0.617503 -1.234722,0.705555 -0.881945,0.617502 -0.881944,0.61722 0,0 -0.440973,0.352778 -0.440972,0.264442 -0.440972,0.264725 -0.529167,0.176389 -0.176389,0 -0.176388,0 -0.176389,-0.08834 -0.0882,-0.176107 -0.08819,-0.264724 0,-0.264724 0,0 0,-1.058334 -0.0882,-1.23444 -0.08819,-1.411111 0,0 0.352778,-0.176671 1.146527,-0.528884 0.79375,-0.264725 0.881945,-0.352778 1.058333,-0.176389 1.234581,-0.176388 0,0 z"
     style="fill:#e6e6e6;fill-opacity:1;fill-rule:nonzero;stroke:#666666;stroke-width:0.35277778px;stroke-linecap:round;stroke-linejoin:round;stroke-miterlimit:4;stroke-dasharray:none;stroke-opacity:1" />
</svg>
