<?xml version="1.0" standalone="no"?>
<!DOCTYPE svg PUBLIC "-//W3C//DTD SVG 20001102//EN"
"http://www.w3.org/TR/2000/CR-SVG-20001102/DTD/svg-20001102.dtd">
<svg width="432" height="512"
	xmlns:sodipodi="http://sodipodi.sourceforge.net/DTD/sodipodi-0.dtd">
<desc>wmf2svg</desc>
<path d="M316.577332,146.238220L
	316.577332,146.238220 316.948456,147.721481 316.948456,149.946381 316.948456,155.879440 
	315.835052,162.924973 314.350525,171.082932 312.494843,178.870087 310.639160,185.915619 
	309.154633,191.477859 308.041229,194.444397 308.041229,194.444397 306.927826,196.669312 
	305.814453,200.377487 302.103088,210.389526 300.247406,215.951797 298.020630,221.514038 
	295.422668,226.705490 292.824738,231.526108 292.824738,231.526108 290.969086,234.121811 
	288.371124,237.088348 280.577301,244.875504 270.927856,253.404282 260.536072,263.045532 
	240.865982,279.732300 229.731949,288.631897 229.731949,288.631897 228.247437,289.373535 
	226.762878,289.744324 222.309280,290.856812 217.113403,291.227631 211.175262,291.227631 
	205.608246,290.856812 200.412369,290.485992 196.329895,289.744324 193.360825,288.631897 
	193.360825,288.631897 192.247421,287.519440 190.391754,285.294556 184.453598,278.619843 
	169.608246,258.966522 153.649475,237.459167 143.628876,222.997314 143.628876,222.997314 
	140.659790,218.176682 138.432983,212.985245 133.608246,201.860748 130.268036,191.848694 
	128.783508,188.140518 127.670105,185.915619 127.670105,185.915619 126.556709,182.578262 
	125.443298,176.645203 124.329903,169.228867 123.587631,161.070892 123.216492,152.542084 
	123.216492,145.125748 123.587631,142.159225 124.329903,139.563507 124.701027,137.709427 
	125.814438,136.596970 125.814438,136.596970 129.896912,134.001251 133.979385,132.147171 
	138.804123,129.922272 143.628876,128.438995 149.195877,126.955734 154.391754,125.472466 
	166.268051,123.247566 178.515457,121.764297 190.762878,121.022659 203.010315,120.281029 
	215.257721,120.281029 215.257721,120.281029 228.247437,120.651840 243.463928,122.135109 
	259.051544,123.989197 267.216492,125.472466 275.010315,126.955734 282.432983,128.809814 
	289.484528,130.663910 296.164948,132.888794 302.103088,135.113708 307.298950,137.709427 
	311.381439,140.305130 314.721649,143.271667 315.835052,144.754929 316.577332,146.238220 
	316.577332,146.238220 ZM177.773193,41.667843L
	177.773193,41.667843 175.546387,42.409477 172.948456,43.521927 165.896912,47.600914 
	157.731949,53.163166 148.824738,59.467052 140.288651,66.141754 132.494843,72.445641 
	126.556709,78.007896 124.701027,80.232796 123.216492,82.086884 123.216492,82.086884 
	120.618553,87.649139 116.536079,96.548744 112.082474,107.673256 107.628860,119.910210 
	103.175255,132.147171 99.835052,142.900864 97.979378,151.058823 97.608246,153.654556 
	97.979378,155.137817 97.979378,155.137817 102.061852,161.812515 103.917526,164.408234 
	105.773193,166.633133 105.773193,166.633133 106.886597,168.116394 108.000000,171.453751 
	110.226807,181.836639 112.082474,194.073593 113.938141,205.568909 113.938141,205.568909 
	114.309280,208.164642 115.422684,211.131180 116.907219,214.097702 118.762886,217.435059 
	123.216492,224.480576 128.041245,231.526108 138.061844,245.246323 142.144333,251.550217 
	145.113403,257.112457 145.113403,257.112457 146.969070,261.562286 149.195877,265.270416 
	151.793808,268.607788 154.391754,271.574310 160.329895,277.878204 163.298965,281.586365 
	166.639175,285.665375 166.639175,285.665375 168.494858,287.890259 170.721649,290.115143 
	174.804123,293.452515 179.257736,296.419037 183.711349,298.643982 187.793823,300.498047 
	190.762878,301.610504 193.731964,302.722931 230.103104,302.722931 230.103104,302.722931 
	235.670105,300.127228 248.659805,293.823334 262.762878,286.036194 268.329895,282.698822 
	272.412354,279.732300 272.412354,279.732300 278.721649,273.799225 288.000000,264.157990 
	304.329895,246.358780 304.329895,246.358780 306.927826,243.021423 309.525787,238.571625 
	311.752563,233.750992 314.350525,228.188751 316.206177,222.255661 318.061859,216.693420 
	319.546387,210.760345 320.659790,205.568909 320.659790,205.568909 322.515442,194.073593 
	324.371124,181.836639 326.597931,171.453751 327.711334,168.116394 328.453613,166.633133 
	328.453613,166.633133 330.680389,165.520691 332.536102,164.408234 334.762878,163.295792 
	335.505157,162.183334 336.618561,161.070892 336.618561,161.070892 336.618561,159.958435 
	336.618561,158.104355 336.247437,152.171280 334.391754,136.967773 332.907227,123.989197 
	332.536102,121.393478 332.536102,121.022659 332.907227,121.022659 333.278351,122.135109 
	333.278351,122.135109 333.278351,123.247566 333.278351,123.247566 332.907227,123.247566 
	331.051544,120.281029 322.886597,106.931618 312.865997,90.615677 308.412384,83.940964 
	305.072174,79.861984 305.072174,79.861984 296.536072,71.333199 290.597961,65.400124 
	283.917511,59.096237 277.237122,53.163166 270.927856,48.342548 268.329895,46.488461 
	265.360809,45.005192 263.134033,43.892742 261.278351,43.521927 261.278351,43.521927 
	253.484543,43.521927 245.690720,44.263561 238.268036,44.634377 233.072159,45.005192 
	233.072159,45.005192 231.216492,44.634377 228.989700,43.521927 224.907211,40.555393 
	222.309280,39.072124 220.082489,37.588856 217.484543,36.476406 215.257721,36.105587 
	215.257721,36.105587 212.659805,36.476406 210.061859,37.588856 207.463913,38.701305 
	204.865982,40.184574 200.041229,43.151108 198.185562,44.263561 196.329895,44.634377 
	196.329895,44.634377 194.845367,44.263561 192.989685,43.892742 189.278351,42.409477 
	186.680405,41.667843 184.082474,41.297028 181.113403,41.297028 177.773193,41.667843 
	177.773193,41.667843 Z"
	style="fill-opacity:1.0; fill-rule:nonzero; fill:gainsboro; stroke-width:1.483902; stroke-linecap:round; stroke-linejoin:round; stroke-dasharray:none; stroke:dimgray" />
<polyline points="170.721649,511.122040 
	170.721649,511.122040 "
	style="stroke-width:1.483902; stroke-linecap:round; stroke-linejoin:round; stroke-dasharray:none; stroke:dimgray" />
<path d="M404.164948,5.698602L
	404.164948,5.698602 408.618561,9.777588 412.701019,14.227390 417.896912,20.902096 
	420.123718,24.610266 422.721649,28.689251 424.948456,33.139053 427.175262,37.588856 
	428.659790,42.409477 430.144318,47.600914 430.886597,53.163166 431.257721,58.725422 
	431.257721,58.725422 431.257721,64.287674 430.886597,69.849930 429.773193,80.232796 
	427.917511,90.244858 426.061859,99.144463 422.350525,113.977142 421.237122,119.168571 
	420.865997,123.247566 420.865997,123.247566 421.608246,133.630432 423.092773,150.688019 
	424.577332,169.970490 425.319611,179.611725 425.319611,188.882156 425.319611,188.882156 
	424.948456,192.961136 424.206177,197.410950 423.092773,202.231552 421.608246,206.681366 
	419.381439,211.131180 417.525787,215.580978 412.701019,223.738953 407.876282,231.526108 
	403.793793,237.829971 400.824738,243.021423 399.711334,244.875504 399.340210,246.358780 
	399.340210,246.358780 397.484528,252.662659 393.773193,265.270416 390.804138,273.057587 
	387.463928,281.586365 383.752563,290.115143 379.298981,299.014771 379.298981,299.014771 
	374.845367,306.431122 370.391754,313.476624 365.567017,320.151337 360.742249,326.455231 
	356.288666,331.646667 351.835052,336.467255 345.154633,343.512787 345.154633,343.512787 
	338.103088,350.187500 328.453613,358.716278 317.319611,368.357544 311.010284,373.178162 
	304.329895,377.998779 297.278351,382.819366 290.226807,387.269196 282.432983,391.348206 
	275.010315,394.685547 266.845367,397.652069 259.051544,399.876984 250.886597,401.360229 
	246.804138,401.731049 242.350525,401.731049 242.350525,401.731049 239.381439,401.731049 
	236.783493,400.989441 234.556702,399.876984 232.329895,398.764496 230.474228,396.910431 
	228.989700,395.427155 226.020615,391.348206 223.422668,387.640015 221.195877,384.302673 
	219.711334,382.819366 218.597946,381.706940 216.742279,381.336121 215.257721,380.965302 
	215.257721,380.965302 215.257721,380.965302 213.773193,381.336121 211.917526,381.706940 
	210.804123,382.819366 209.319580,384.302673 207.092789,387.640015 204.494843,391.348206 
	201.525772,395.427155 200.041229,396.910431 198.185562,398.764496 195.958755,399.876984 
	193.731964,400.989441 191.134018,401.731049 188.164948,401.731049 188.164948,401.731049 
	183.711349,401.731049 179.628876,400.989441 175.175262,400.247803 170.721649,399.135345 
	166.268051,397.652069 161.814438,396.168793 152.536087,392.089813 143.628876,386.898376 
	134.350510,381.706940 125.443298,375.773895 116.907219,369.470001 108.742271,363.166107 
	101.319588,356.862213 87.958763,345.366913 72.000000,330.905029 72.000000,330.905029 
	69.773201,328.680115 67.546394,324.971954 61.608246,314.959900 55.298969,301.981323 
	48.618557,287.890259 41.938145,273.428406 36.742268,260.820648 33.030930,251.179398 
	31.175257,246.358780 31.175257,246.358780 30.432991,241.167328 30.061853,235.234268 
	30.061853,230.042816 30.432991,227.447113 31.175257,225.222214 31.175257,225.222214 
	31.175257,224.109756 30.432991,222.255661 27.463917,217.435059 16.701031,203.714828 
	11.134021,195.556854 8.164948,191.107056 5.938144,186.657242 3.711340,182.207443 
	2.226804,177.757645 1.113402,173.307846 0.742268,168.858047 0.742268,168.858047 
	1.113402,164.779068 1.484536,160.700058 2.597938,156.621078 3.711340,152.912903 
	6.309278,145.496582 9.649485,138.821869 15.958763,127.697365 17.814432,123.247566 
	18.556702,121.393478 18.556702,119.910210 18.556702,119.910210 18.185568,115.089584 
	16.701031,107.673256 12.247422,87.278320 10.020618,75.412178 8.164948,62.804405 
	6.680412,50.196632 6.309278,44.263561 5.938144,38.330486 5.938144,38.330486 
	6.309278,32.768238 7.051547,27.947615 8.536082,23.497812 10.020618,19.789644 
	11.876288,16.081476 14.103093,13.114941 16.329897,10.519222 18.556702,8.294321 
	21.154638,6.440236 23.381443,4.586152 27.092785,2.361250 30.061853,1.248799 
	31.175257,0.877982 31.175257,0.877982 33.030930,1.248799 35.257732,1.990433 
	37.484535,2.732067 39.711342,4.215334 41.938145,6.440236 42.680412,7.923503 
	43.422680,9.406771 43.793816,10.890038 43.793816,12.744123 43.793816,12.744123 
	43.422680,16.823109 42.309277,21.272913 40.824741,25.722715 39.340206,30.172518 
	36.371136,38.701305 35.257732,42.409477 34.886600,45.376011 34.886600,45.376011 
	35.257732,47.230095 36.000000,49.454998 38.226807,55.388065 41.938145,62.433586 
	46.391754,69.849930 50.845360,77.266266 54.927834,83.570152 58.639175,88.390778 
	59.752579,89.874039 60.865982,90.615677 60.865982,90.615677 84.989693,103.594261 
	105.402061,115.089584 105.402061,115.089584 107.257736,121.022659 109.484535,126.214096 
	110.597939,128.809814 112.082474,130.663910 112.082474,130.663910 112.453606,131.776352 
	112.453606,132.888794 112.082474,134.742889 111.340202,136.226151 109.113396,140.305130 
	106.515465,144.384125 100.577324,151.800461 97.979378,155.137817 97.979378,155.137817 
	96.123711,155.879440 93.896912,156.250259 91.298965,156.250259 88.701035,156.250259 
	85.731956,155.508636 84.247429,154.766998 83.134026,154.025360 82.020622,152.912903 
	80.907219,151.429642 80.907219,151.429642 80.164948,150.317200 79.422684,150.317200 
	79.051544,151.058823 78.680412,152.171280 78.309280,156.621078 78.680412,162.554153 
	80.164948,174.791107 80.907219,179.240906 81.649483,181.836639 81.649483,181.836639 
	86.474228,189.623795 95.752579,203.714828 105.402061,217.805862 109.113396,222.997314 
	111.340202,225.593018 111.340202,225.593018 112.082474,226.705490 113.195877,228.930374 
	116.536079,235.605087 124.329903,256.000000 132.494843,277.136597 136.206177,285.294556 
	137.690735,288.261078 138.804123,290.115143 138.804123,290.115143 142.144333,294.194153 
	147.340210,300.127228 154.391754,307.172760 158.845367,310.880920 163.298965,314.218292 
	168.494858,317.926422 174.061859,321.263763 180.000000,324.230316 186.309265,326.826050 
	192.989685,329.050934 200.041229,330.905029 207.463913,332.017487 215.257721,332.388306 
	215.257721,332.388306 223.051544,332.017487 230.103104,331.275848 236.412369,330.163391 
	242.350525,328.680115 247.917526,326.455231 252.742264,324.601135 257.195862,322.005432 
	261.278351,319.780518 264.618530,317.184814 267.587646,314.959900 272.783508,310.510101 
	276.494843,306.801941 279.092804,304.947845 279.092804,304.947845 280.206177,303.835388 
	282.061859,301.981323 286.886597,296.419037 292.824738,288.631897 299.134003,279.732300 
	305.072174,270.832703 310.268066,262.674713 313.979401,256.000000 315.092773,253.404282 
	315.463898,251.550217 315.463898,251.550217 316.577332,243.763062 319.175262,233.750992 
	320.659790,228.559555 322.144318,223.738953 324.000000,219.289139 325.855682,215.951797 
	325.855682,215.951797 328.453613,212.985245 332.164948,209.277084 341.072174,201.119110 
	345.154633,197.410950 348.865997,194.073593 351.092773,191.107056 351.835052,189.994598 
	351.835052,189.252975 351.835052,189.252975 351.835052,186.657242 351.463928,182.207443 
	351.835052,170.712128 352.577332,155.137817 352.577332,155.137817 351.092773,156.621078 
	347.010315,159.587616 344.783508,161.070892 342.556702,162.183334 340.329895,162.554153 
	339.216492,162.183334 338.474213,161.812515 338.474213,161.812515 337.731934,160.700058 
	336.989716,158.845978 335.505157,153.283737 334.762878,145.496582 333.649475,136.967773 
	333.278351,128.438995 333.278351,121.022659 333.278351,115.089584 333.649475,113.235504 
	334.020599,112.493874 334.020599,112.493874 335.505157,110.268967 337.360840,108.044067 
	338.474213,107.302429 339.587616,106.560799 341.072174,106.189987 342.927826,106.189987 
	342.927826,106.189987 346.639160,105.819168 353.690704,104.335899 357.773193,103.223450 
	362.226807,101.740173 367.051544,99.886101 371.876312,97.661194 376.701019,95.065475 
	380.783508,92.469757 384.865967,89.132408 388.577301,85.053421 390.061859,83.199333 
	391.175262,80.974434 392.288666,78.749535 393.402069,76.153809 393.773193,73.928909 
	394.144348,70.962379 394.515472,68.366653 394.144348,65.400124 394.144348,65.400124 
	393.402069,59.467052 392.288666,54.275616 390.432983,44.263561 388.577301,35.363953 
	387.835052,31.284967 387.463928,27.576799 387.463928,23.868629 387.835052,20.902096 
	388.948456,17.564743 390.432983,14.969025 392.659790,12.373307 395.628845,9.777588 
	399.711334,7.552686 404.164948,5.698602 404.164948,5.698602 Z"
	style="fill-opacity:1.0; fill-rule:nonzero; fill:gainsboro; stroke-width:1.483902; stroke-linecap:round; stroke-linejoin:round; stroke-dasharray:none; stroke:dimgray" />
<path d="M255.711334,162.183334L
	255.711334,162.183334 257.938141,156.621078 260.536072,150.317200 262.020630,147.721481 
	263.505157,145.125748 265.360809,143.271667 266.845367,141.788406 266.845367,141.788406 
	269.072144,140.675949 272.783508,139.192688 277.237122,137.709427 282.804138,136.226151 
	288.371124,135.113708 293.567017,134.372070 298.391754,134.372070 300.618561,134.742889 
	302.474243,135.484512 302.474243,135.484512 305.443298,136.596970 308.412384,138.451065 
	311.010284,140.305130 312.865997,142.159225 315.463898,145.125748 316.577332,146.238220 
	316.577332,146.238220 316.948456,147.721481 316.948456,149.946381 316.948456,155.879440 
	315.835052,162.924973 314.350525,171.082932 312.494843,178.870087 310.639160,185.915619 
	309.154633,191.477859 308.041229,194.444397 308.041229,194.444397 306.927826,196.669312 
	305.814453,200.377487 302.103088,210.389526 300.247406,215.951797 298.020630,221.514038 
	295.422668,226.705490 292.824738,231.526108 292.824738,231.526108 290.226807,234.863449 
	286.144348,239.313248 274.639191,250.066956 260.907196,262.303894 247.546387,274.170044 
	247.546387,274.170044 244.206192,277.507385 241.237106,281.586365 238.639160,286.036194 
	236.041229,290.485992 232.329895,298.643982 231.216492,301.239685 230.103104,302.722931 
	230.103104,302.722931 242.350525,234.863449 250.886597,186.657242 254.226807,169.970490 
	255.711334,162.183334 255.711334,162.183334 Z"
	style="fill-opacity:1.0; fill-rule:nonzero; fill:darkgray; stroke-width:1.483902; stroke-linecap:round; stroke-linejoin:round; stroke-dasharray:none; stroke:dimgray" />
<path d="M195.587631,302.722931L
	195.587631,302.722931 194.845367,301.610504 193.360825,298.643982 190.020615,290.856812 
	185.567017,281.586365 182.969070,277.136597 180.742264,273.799225 180.742264,273.799225 
	169.979385,259.708191 158.845367,244.875504 149.567001,231.526108 143.628876,222.997314 
	143.628876,222.997314 140.659790,218.176682 138.432983,212.985245 133.608246,201.860748 
	130.268036,191.848694 128.783508,188.140518 127.670105,185.915619 127.670105,185.915619 
	126.556709,182.578262 125.443298,176.645203 124.329903,169.228867 123.587631,161.070892 
	123.216492,152.542084 123.216492,145.125748 123.587631,142.159225 124.329903,139.563507 
	124.701027,137.709427 125.814438,136.596970 125.814438,136.596970 128.783508,134.742889 
	131.381439,133.259613 134.350510,131.776352 134.350510,131.776352 136.577316,131.405533 
	139.917526,131.034714 149.938141,131.405533 155.134033,131.776352 159.587631,132.517975 
	163.298965,133.259613 164.783508,134.001251 165.896912,134.372070 165.896912,134.372070 
	167.381439,136.226151 168.494858,138.821869 171.092773,145.496582 173.690720,152.542084 
	174.804123,155.508636 176.288666,158.104355 176.288666,158.104355 178.144333,167.003952 
	181.113403,184.432358 184.453598,207.423004 188.164948,233.380173 191.505157,258.595734 
	194.103088,280.473907 195.587631,296.419037 195.958755,300.868866 195.958755,301.981323 
	195.587631,302.722931 195.587631,302.722931 Z"
	style="fill-opacity:1.0; fill-rule:nonzero; fill:darkgray; stroke-width:1.483902; stroke-linecap:round; stroke-linejoin:round; stroke-dasharray:none; stroke:dimgray" />
<path d="M221.195877,343.883606L
	201.896896,343.883606 201.896896,343.883606 200.412369,334.613190 197.072174,314.959900 
	195.958755,304.577026 194.845367,295.677429 194.845367,292.340088 194.845367,290.115143 
	195.216492,288.631897 195.587631,288.631897 195.958755,288.631897 195.958755,288.631897 
	197.072174,289.002716 198.556702,289.744324 202.639175,290.115143 207.835052,290.485992 
	213.402054,290.856812 219.340210,290.485992 224.536087,289.744324 228.989700,289.002716 
	230.474228,288.261078 231.587616,287.519440 231.587616,287.519440 231.958771,287.519440 
	231.958771,287.519440 232.329895,289.002716 231.587616,294.935791 230.103104,303.835388 
	227.876282,314.589081 223.051544,334.613190 221.195877,343.883606 221.195877,343.883606 Z"
	style="fill-opacity:1.0; fill-rule:nonzero; fill:darkgray; stroke-width:1.483902; stroke-linecap:round; stroke-linejoin:round; stroke-dasharray:none; stroke:dimgray" />
<path d="M263.134033,163.666595L
	224.536087,343.883606 216.742279,343.883606 253.113419,155.879440 263.134033,163.666595 Z"
	style="fill-opacity:1.0; fill-rule:nonzero; fill:darkgray; stroke-width:1.483902; stroke-linecap:round; stroke-linejoin:round; stroke-dasharray:none; stroke:dimgray" />
<path d="M180.742264,162.183334L
	208.948456,343.883606 199.670105,343.883606 169.979385,165.149872 180.742264,162.183334 Z"
	style="fill-opacity:1.0; fill-rule:nonzero; fill:darkgray; stroke-width:1.483902; stroke-linecap:round; stroke-linejoin:round; stroke-dasharray:none; stroke:dimgray" />
<path d="M181.855667,168.487213L
	181.855667,168.487213 179.628876,168.858047 175.175262,169.970490 172.577316,170.341309 
	169.979385,170.341309 168.123718,169.970490 167.010300,169.228867 167.010300,169.228867 
	165.896912,167.374771 164.412369,163.666595 160.701035,153.283737 158.845367,147.721481 
	156.989700,143.271667 155.134033,139.934326 154.391754,138.821869 153.649475,138.451065 
	153.649475,138.451065 145.484543,136.226151 130.639175,132.517975 123.216492,129.922272 
	116.536079,127.326546 113.567001,126.214096 111.340202,125.101646 109.855667,123.989197 
	109.113396,122.876740 109.113396,122.876740 107.628860,118.797752 106.144333,114.718773 
	105.402061,112.493874 105.402061,110.639786 105.402061,108.414886 105.773193,106.189987 
	105.773193,106.189987 107.257736,102.481812 109.484535,96.919563 113.195877,90.244858 
	117.278351,82.828522 121.731964,75.412178 126.556709,68.737473 128.783508,65.770943 
	131.010315,63.546040 133.237122,61.321136 135.092789,60.208687 135.092789,60.208687 
	138.804123,58.725422 142.515457,57.983788 146.226807,57.983788 149.567001,58.725422 
	152.536087,59.837872 155.134033,61.321136 157.360825,63.175220 158.845367,65.029312 
	158.845367,65.029312 159.587631,67.254211 159.958755,69.108299 159.587631,70.591560 
	159.587631,71.704010 158.845367,73.928909 158.845367,74.299728 159.216492,75.041367 
	159.216492,75.041367 160.329895,75.041367 162.556702,74.299728 167.752579,72.816467 
	170.350525,71.704010 172.577316,71.333199 174.061859,71.333199 174.432999,71.704010 
	174.432999,72.074829 174.432999,72.074829 174.061859,73.928909 172.577316,76.524628 
	168.123718,83.940964 164.041245,90.986488 163.298965,93.953018 162.927841,94.694664 
	162.927841,95.436295 162.927841,95.436295 164.783508,96.919563 168.123718,100.256912 
	169.979385,102.852631 172.206192,105.819168 174.432999,109.156517 176.659790,113.235504 
	178.886597,117.685310 180.742264,122.876740 182.226807,128.809814 183.340210,135.113708 
	183.711349,142.530045 183.711349,150.317200 183.340210,158.845978 181.855667,168.487213 
	181.855667,168.487213 Z"
	style="fill-opacity:1.0; fill-rule:nonzero; fill:gainsboro; stroke-width:1.483902; stroke-linecap:round; stroke-linejoin:round; stroke-dasharray:none; stroke:dimgray" />
<path d="M252.371140,160.700058L
	252.371140,160.700058 253.855652,162.183334 257.567017,164.408234 259.422699,165.891510 
	261.278351,166.633133 262.762878,167.003952 263.505157,167.003952 263.876312,166.633133 
	263.876312,166.633133 271.670105,155.879440 276.494843,149.204758 278.721649,147.350662 
	280.206177,146.238220 280.206177,146.238220 288.371124,143.271667 302.474243,136.967773 
	309.896912,133.259613 316.577332,129.922272 321.402069,126.584908 322.886597,125.472466 
	323.628876,123.989197 323.628876,123.989197 324.742279,122.135109 326.226807,119.910210 
	329.567017,115.831223 331.051544,113.977142 332.536102,111.752243 332.907227,109.527336 
	332.907227,108.414886 332.907227,107.302429 332.907227,107.302429 332.536102,104.335899 
	331.793823,100.256912 331.422668,97.661194 330.680389,95.065475 329.195892,92.469757 
	327.711334,89.874039 327.711334,89.874039 325.855682,86.907509 323.257721,84.311783 
	320.659790,81.716064 317.690735,79.120354 312.123718,75.041367 307.298950,72.074829 
	307.298950,72.074829 305.443298,71.333199 303.587616,70.962379 301.731964,70.962379 
	299.876282,70.962379 298.020630,71.333199 296.164948,72.074829 292.453613,73.928909 
	289.484528,76.153809 286.515472,78.749535 284.288666,80.974434 282.804138,83.570152 
	282.804138,83.570152 279.835052,82.457703 276.123688,80.974434 268.329895,76.524628 
	261.649475,72.816467 259.793823,72.074829 259.051544,72.445641 259.051544,72.816467 
	259.051544,72.816467 259.422699,76.524628 260.536072,80.603622 262.020630,85.053421 
	263.876312,89.874039 267.216492,98.032013 267.958771,101.369362 268.329895,103.965088 
	268.329895,103.965088 267.958771,104.706718 267.216492,105.448349 264.989685,107.673256 
	262.020630,111.010597 260.164948,113.235504 258.680420,116.202042 256.824738,119.539391 
	255.340210,123.247566 254.226807,127.697365 253.113419,132.888794 252.371140,138.451065 
	251.999985,145.125748 251.999985,152.542084 252.371140,160.700058 252.371140,160.700058 Z"
	style="fill-opacity:1.0; fill-rule:nonzero; fill:gainsboro; stroke-width:1.483902; stroke-linecap:round; stroke-linejoin:round; stroke-dasharray:none; stroke:dimgray" />
</svg>
