<?xml version="1.0" standalone="no"?>
<!DOCTYPE svg PUBLIC "-//W3C//DTD SVG 20001102//EN"
"http://www.w3.org/TR/2000/CR-SVG-20001102/DTD/svg-20001102.dtd">
<svg width="432" height="512"
	xmlns:sodipodi="http://sodipodi.sourceforge.net/DTD/sodipodi-0.dtd">
<desc>wmf2svg</desc>
<path d="M316.577332,146.238220L
	316.577332,146.238220 316.948456,147.721481 316.948456,149.946381 316.948456,155.879440 
	315.835052,162.924973 314.350525,171.082932 312.494843,178.870087 310.639160,185.915619 
	309.154633,191.477859 308.041229,194.444397 308.041229,194.444397 306.927826,196.669312 
	305.814453,200.377487 302.103088,210.389526 300.247406,215.951797 298.020630,221.514038 
	295.422668,226.705490 292.824738,231.526108 292.824738,231.526108 290.969086,234.121811 
	288.371124,237.088348 280.577301,244.875504 270.927856,253.404282 260.536072,263.045532 
	240.865982,279.732300 229.731949,288.631897 229.731949,288.631897 228.247437,289.373535 
	226.762878,289.744324 222.309280,290.856812 217.113403,291.227631 211.175262,291.227631 
	205.608246,290.856812 200.412369,290.485992 196.329895,289.744324 193.360825,288.631897 
	193.360825,288.631897 192.247421,287.519440 190.391754,285.294556 184.453598,278.619843 
	169.608246,258.966522 153.649475,237.459167 143.628876,222.997314 143.628876,222.997314 
	140.659790,218.176682 138.432983,212.985245 133.608246,201.860748 130.268036,191.848694 
	128.783508,188.140518 127.670105,185.915619 127.670105,185.915619 126.556709,182.578262 
	125.443298,176.645203 124.329903,169.228867 123.587631,161.070892 123.216492,152.542084 
	123.216492,145.125748 123.587631,142.159225 124.329903,139.563507 124.701027,137.709427 
	125.814438,136.596970 125.814438,136.596970 129.896912,134.001251 133.979385,132.147171 
	138.804123,129.922272 143.628876,128.438995 149.195877,126.955734 154.391754,125.472466 
	166.268051,123.247566 178.515457,121.764297 190.762878,121.022659 203.010315,120.281029 
	215.257721,120.281029 215.257721,120.281029 228.247437,120.651840 243.463928,122.135109 
	259.051544,123.989197 267.216492,125.472466 275.010315,126.955734 282.432983,128.809814 
	289.484528,130.663910 296.164948,132.888794 302.103088,135.113708 307.298950,137.709427 
	311.381439,140.305130 314.721649,143.271667 315.835052,144.754929 316.577332,146.238220 
	316.577332,146.238220 ZM177.773193,41.667843L
	177.773193,41.667843 175.546387,42.409477 172.948456,43.521927 165.896912,47.600914 
	157.731949,53.163166 148.824738,59.467052 140.288651,66.141754 132.494843,72.445641 
	126.556709,78.007896 124.701027,80.232796 123.216492,82.086884 123.216492,82.086884 
	120.618553,87.649139 116.536079,96.548744 112.082474,107.673256 107.628860,119.910210 
	103.175255,132.147171 99.835052,142.900864 97.979378,151.058823 97.608246,153.654556 
	97.979378,155.137817 97.979378,155.137817 102.061852,161.812515 103.917526,164.408234 
	105.773193,166.633133 105.773193,166.633133 106.886597,168.116394 108.000000,171.453751 
	110.226807,181.836639 112.082474,194.073593 113.938141,205.568909 113.938141,205.568909 
	114.309280,208.164642 115.422684,211.131180 116.907219,214.097702 118.762886,217.435059 
	123.216492,224.480576 128.041245,231.526108 138.061844,245.246323 142.144333,251.550217 
	145.113403,257.112457 145.113403,257.112457 146.969070,261.562286 149.195877,265.270416 
	151.793808,268.607788 154.391754,271.574310 160.329895,277.878204 163.298965,281.586365 
	166.639175,285.665375 166.639175,285.665375 168.494858,287.890259 170.721649,290.115143 
	174.804123,293.452515 179.257736,296.419037 183.711349,298.643982 187.793823,300.498047 
	190.762878,301.610504 193.731964,302.722931 230.103104,302.722931 230.103104,302.722931 
	235.670105,300.127228 248.659805,293.823334 262.762878,286.036194 268.329895,282.698822 
	272.412354,279.732300 272.412354,279.732300 278.721649,273.799225 288.000000,264.157990 
	304.329895,246.358780 304.329895,246.358780 306.927826,243.021423 309.525787,238.571625 
	311.752563,233.750992 314.350525,228.188751 316.206177,222.255661 318.061859,216.693420 
	319.546387,210.760345 320.659790,205.568909 320.659790,205.568909 322.515442,194.073593 
	324.371124,181.836639 326.597931,171.453751 327.711334,168.116394 328.453613,166.633133 
	328.453613,166.633133 330.680389,165.520691 332.536102,164.408234 334.762878,163.295792 
	335.505157,162.183334 336.618561,161.070892 336.618561,161.070892 336.618561,159.958435 
	336.618561,158.104355 336.247437,152.171280 334.391754,136.967773 332.907227,123.989197 
	332.536102,121.393478 332.536102,121.022659 332.907227,121.022659 333.278351,122.135109 
	333.278351,122.135109 333.278351,123.247566 333.278351,123.247566 332.907227,123.247566 
	331.051544,120.281029 322.886597,106.931618 312.865997,90.615677 308.412384,83.940964 
	305.072174,79.861984 305.072174,79.861984 296.536072,71.333199 290.597961,65.400124 
	283.917511,59.096237 277.237122,53.163166 270.927856,48.342548 268.329895,46.488461 
	265.360809,45.005192 263.134033,43.892742 261.278351,43.521927 261.278351,43.521927 
	253.484543,43.521927 245.690720,44.263561 238.268036,44.634377 233.072159,45.005192 
	233.072159,45.005192 231.216492,44.634377 228.989700,43.521927 224.907211,40.555393 
	222.309280,39.072124 220.082489,37.588856 217.484543,36.476406 215.257721,36.105587 
	215.257721,36.105587 212.659805,36.476406 210.061859,37.588856 207.463913,38.701305 
	204.865982,40.184574 200.041229,43.151108 198.185562,44.263561 196.329895,44.634377 
	196.329895,44.634377 194.845367,44.263561 192.989685,43.892742 189.278351,42.409477 
	186.680405,41.667843 184.082474,41.297028 181.113403,41.297028 177.773193,41.667843 
	177.773193,41.667843 Z"
	style="fill-opacity:1.0; fill-rule:nonzero; fill:gainsboro; stroke-width:1.483902; stroke-linecap:round; stroke-linejoin:round; stroke-dasharray:none; stroke:dimgray" />
<polyline points="170.721649,511.122040 
	170.721649,511.122040 "
	style="stroke-width:1.483902; stroke-linecap:round; stroke-linejoin:round; stroke-dasharray:none; stroke:dimgray" />
<path d="M404.164948,5.698602L
	404.164948,5.698602 408.618561,9.777588 412.701019,14.227390 417.896912,20.902096 
	420.123718,24.610266 422.721649,28.689251 424.948456,33.139053 427.175262,37.588856 
	428.659790,42.409477 430.144318,47.600914 430.886597,53.163166 431.257721,58.725422 
	431.257721,58.725422 431.257721,64.287674 430.886597,69.849930 429.773193,80.232796 
	427.917511,90.244858 426.061859,99.144463 422.350525,113.977142 421.237122,119.168571 
	420.865997,123.247566 420.865997,123.247566 421.608246,133.630432 423.092773,150.688019 
	424.577332,169.970490 425.319611,179.611725 425.319611,188.882156 425.319611,188.882156 
	424.948456,192.961136 424.206177,197.410950 423.092773,202.231552 421.608246,206.681366 
	419.381439,211.131180 417.525787,215.580978 412.701019,223.738953 407.876282,231.526108 
	403.793793,237.829971 400.824738,243.021423 399.711334,244.875504 399.340210,246.358780 
	399.340210,246.358780 397.484528,252.662659 393.773193,265.270416 390.804138,273.057587 
	387.463928,281.586365 383.752563,290.115143 379.298981,299.014771 379.298981,299.014771 
	374.845367,306.431122 370.391754,313.476624 365.567017,320.151337 360.742249,326.455231 
	356.288666,331.646667 351.835052,336.467255 345.154633,343.512787 345.154633,343.512787 
	338.103088,350.187500 328.453613,358.716278 317.319611,368.357544 311.010284,373.178162 
	304.329895,377.998779 297.278351,382.819366 290.226807,387.269196 282.432983,391.348206 
	275.010315,394.685547 266.845367,397.652069 259.051544,399.876984 250.886597,401.360229 
	246.804138,401.731049 242.350525,401.731049 242.350525,401.731049 239.381439,401.731049 
	236.783493,400.989441 234.556702,399.876984 232.329895,398.764496 230.474228,396.910431 
	228.989700,395.427155 226.020615,391.348206 223.422668,387.640015 221.195877,384.302673 
	219.711334,382.819366 218.597946,381.706940 216.742279,381.336121 215.257721,380.965302 
	215.257721,380.965302 215.257721,380.965302 213.773193,381.336121 211.917526,381.706940 
	210.804123,382.819366 209.319580,384.302673 207.092789,387.640015 204.494843,391.348206 
	201.525772,395.427155 200.041229,396.910431 198.185562,398.764496 195.958755,399.876984 
	193.731964,400.989441 191.134018,401.731049 188.164948,401.731049 188.164948,401.731049 
	183.711349,401.731049 179.628876,400.989441 175.175262,400.247803 170.721649,399.135345 
	166.268051,397.652069 161.814438,396.168793 152.536087,392.089813 143.628876,386.898376 
	134.350510,381.706940 125.443298,375.773895 116.907219,369.470001 108.742271,363.166107 
	101.319588,356.862213 87.958763,345.366913 72.000000,330.905029 72.000000,330.905029 
	69.773201,328.680115 67.546394,324.971954 61.608246,314.959900 55.298969,301.981323 
	48.618557,287.890259 41.938145,273.428406 36.742268,260.820648 33.030930,251.179398 
	31.175257,246.358780 31.175257,246.358780 30.432991,241.167328 30.061853,235.234268 
	30.061853,230.042816 30.432991,227.447113 31.175257,225.222214 31.175257,225.222214 
	31.175257,224.109756 30.432991,222.255661 27.463917,217.435059 16.701031,203.714828 
	11.134021,195.556854 8.164948,191.107056 5.938144,186.657242 3.711340,182.207443 
	2.226804,177.757645 1.113402,173.307846 0.742268,168.858047 0.742268,168.858047 
	1.113402,164.779068 1.484536,160.700058 2.597938,156.621078 3.711340,152.912903 
	6.309278,145.496582 9.649485,138.821869 15.958763,127.697365 17.814432,123.247566 
	18.556702,121.393478 18.556702,119.910210 18.556702,119.910210 18.185568,115.089584 
	16.701031,107.673256 12.247422,87.278320 10.020618,75.412178 8.164948,62.804405 
	6.680412,50.196632 6.309278,44.263561 5.938144,38.330486 5.938144,38.330486 
	6.309278,32.768238 7.051547,27.947615 8.536082,23.497812 10.020618,19.789644 
	11.876288,16.081476 14.103093,13.114941 16.329897,10.519222 18.556702,8.294321 
	21.154638,6.440236 23.381443,4.586152 27.092785,2.361250 30.061853,1.248799 
	31.175257,0.877982 31.175257,0.877982 33.030930,1.248799 35.257732,1.990433 
	37.484535,2.732067 39.711342,4.215334 41.938145,6.440236 42.680412,7.923503 
	43.422680,9.406771 43.793816,10.890038 43.793816,12.744123 43.793816,12.744123 
	43.422680,16.823109 42.309277,21.272913 40.824741,25.722715 39.340206,30.172518 
	36.371136,38.701305 35.257732,42.409477 34.886600,45.376011 34.886600,45.376011 
	35.257732,47.230095 36.000000,49.454998 38.226807,55.388065 41.938145,62.433586 
	46.391754,69.849930 50.845360,77.266266 54.927834,83.570152 58.639175,88.390778 
	59.752579,89.874039 60.865982,90.615677 60.865982,90.615677 84.989693,103.594261 
	105.402061,115.089584 105.402061,115.089584 107.257736,121.022659 109.484535,126.214096 
	110.597939,128.809814 112.082474,130.663910 112.082474,130.663910 112.453606,131.776352 
	112.453606,132.888794 112.082474,134.742889 111.340202,136.226151 109.113396,140.305130 
	106.515465,144.384125 100.577324,151.800461 97.979378,155.137817 97.979378,155.137817 
	96.123711,155.879440 93.896912,156.250259 91.298965,156.250259 88.701035,156.250259 
	85.731956,155.508636 84.247429,154.766998 83.134026,154.025360 82.020622,152.912903 
	80.907219,151.429642 80.907219,151.429642 80.164948,150.317200 79.422684,150.317200 
	79.051544,151.058823 78.680412,152.171280 78.309280,156.621078 78.680412,162.554153 
	80.164948,174.791107 80.907219,179.240906 81.649483,181.836639 81.649483,181.836639 
	86.474228,189.623795 95.752579,203.714828 105.402061,217.805862 109.113396,222.997314 
	111.340202,225.593018 111.340202,225.593018 112.082474,226.705490 113.195877,228.930374 
	116.536079,235.605087 124.329903,256.000000 132.494843,277.136597 136.206177,285.294556 
	137.690735,288.261078 138.804123,290.115143 138.804123,290.115143 142.144333,294.194153 
	147.340210,300.127228 154.391754,307.172760 158.845367,310.880920 163.298965,314.218292 
	168.494858,317.926422 174.061859,321.263763 180.000000,324.230316 186.309265,326.826050 
	192.989685,329.050934 200.041229,330.905029 207.463913,332.017487 215.257721,332.388306 
	215.257721,332.388306 223.051544,332.017487 230.103104,331.275848 236.412369,330.163391 
	242.350525,328.680115 247.917526,326.455231 252.742264,324.601135 257.195862,322.005432 
	261.278351,319.780518 264.618530,317.184814 267.587646,314.959900 272.783508,310.510101 
	276.494843,306.801941 279.092804,304.947845 279.092804,304.947845 280.206177,303.835388 
	282.061859,301.981323 286.886597,296.419037 292.824738,288.631897 299.134003,279.732300 
	305.072174,270.832703 310.268066,262.674713 313.979401,256.000000 315.092773,253.404282 
	315.463898,251.550217 315.463898,251.550217 316.577332,243.763062 319.175262,233.750992 
	320.659790,228.559555 322.144318,223.738953 324.000000,219.289139 325.855682,215.951797 
	325.855682,215.951797 328.453613,212.985245 332.164948,209.277084 341.072174,201.119110 
	345.154633,197.410950 348.865997,194.073593 351.092773,191.107056 351.835052,189.994598 
	351.835052,189.252975 351.835052,189.252975 351.835052,186.657242 351.463928,182.207443 
	351.835052,170.712128 352.577332,155.137817 352.577332,155.137817 351.092773,156.621078 
	347.010315,159.587616 344.783508,161.070892 342.556702,162.183334 340.329895,162.554153 
	339.216492,162.183334 338.474213,161.812515 338.474213,161.812515 337.731934,160.700058 
	336.989716,158.845978 335.505157,153.283737 334.762878,145.496582 333.649475,136.967773 
	333.278351,128.438995 333.278351,121.022659 333.278351,115.089584 333.649475,113.235504 
	334.020599,112.493874 334.020599,112.493874 335.505157,110.268967 337.360840,108.044067 
	338.474213,107.302429 339.587616,106.560799 341.072174,106.189987 342.927826,106.189987 
	342.927826,106.189987 346.639160,105.819168 353.690704,104.335899 357.773193,103.223450 
	362.226807,101.740173 367.051544,99.886101 371.876312,97.661194 376.701019,95.065475 
	380.783508,92.469757 384.865967,89.132408 388.577301,85.053421 390.061859,83.199333 
	391.175262,80.974434 392.288666,78.749535 393.402069,76.153809 393.773193,73.928909 
	394.144348,70.962379 394.515472,68.366653 394.144348,65.400124 394.144348,65.400124 
	393.402069,59.467052 392.288666,54.275616 390.432983,44.263561 388.577301,35.363953 
	387.835052,31.284967 387.463928,27.576799 387.463928,23.868629 387.835052,20.902096 
	388.948456,17.564743 390.432983,14.969025 392.659790,12.373307 395.628845,9.777588 
	399.711334,7.552686 404.164948,5.698602 404.164948,5.698602 Z"
	style="fill-opacity:1.0; fill-rule:nonzero; fill:gainsboro; stroke-width:1.483902; stroke-linecap:round; stroke-linejoin:round; stroke-dasharray:none; stroke:dimgray" />
<path d="M228.618561,136.596970L
	228.618561,136.596970 229.360825,134.001251 229.731949,131.405533 230.103104,126.214096 
	230.474228,123.618378 230.845367,121.393478 231.587616,119.910210 233.072159,118.426941 
	233.072159,118.426941 234.185562,118.426941 236.783493,118.426941 244.206192,119.539391 
	254.226807,121.764297 265.731964,124.730827 288.371124,131.034714 302.474243,135.484512 
	302.474243,135.484512 305.443298,136.596970 308.412384,138.451065 311.010284,140.305130 
	312.865997,142.159225 315.463898,145.125748 316.577332,146.238220 316.577332,146.238220 
	316.948456,147.721481 316.948456,149.946381 316.948456,155.879440 315.835052,162.924973 
	314.350525,171.082932 312.494843,178.870087 310.639160,185.915619 309.154633,191.477859 
	308.041229,194.444397 308.041229,194.444397 306.927826,196.669312 305.814453,200.377487 
	302.103088,210.389526 300.247406,215.951797 298.020630,221.514038 295.422668,226.705490 
	292.824738,231.526108 292.824738,231.526108 289.113403,235.975906 283.175262,241.908966 
	275.752563,248.954483 267.216492,256.741638 249.773193,271.945129 235.298981,284.182098 
	235.298981,284.182098 232.701035,286.777802 228.989700,291.227631 227.134003,293.452515 
	225.649490,296.048218 224.164948,298.643982 223.422668,301.239685 223.422668,301.239685 
	223.793823,276.024139 225.278336,220.772400 227.134003,164.408234 228.247437,145.125748 
	228.618561,136.596970 228.618561,136.596970 Z"
	style="fill-opacity:1.0; fill-rule:nonzero; fill:darkgray; stroke-width:1.483902; stroke-linecap:round; stroke-linejoin:round; stroke-dasharray:none; stroke:dimgray" />
<path d="M203.752579,302.722931L
	203.752579,302.722931 202.639175,299.756409 200.783508,296.789856 197.814423,293.081696 
	193.360825,288.631897 193.360825,288.631897 192.247421,287.519440 190.391754,285.294556 
	184.453598,278.619843 169.608246,258.966522 153.649475,237.459167 143.628876,222.997314 
	143.628876,222.997314 140.659790,218.176682 138.432983,212.985245 133.608246,201.860748 
	130.268036,191.848694 128.783508,188.140518 127.670105,185.915619 127.670105,185.915619 
	126.556709,182.578262 125.443298,176.645203 124.329903,169.228867 123.587631,161.070892 
	123.216492,152.542084 123.216492,145.125748 123.587631,142.159225 124.329903,139.563507 
	124.701027,137.709427 125.814438,136.596970 125.814438,136.596970 128.783508,134.742889 
	131.381439,133.259613 134.350510,131.776352 134.350510,131.776352 143.628876,128.068176 
	161.443298,121.022659 170.721649,117.685310 179.257736,115.089584 182.597931,114.347954 
	185.567017,113.977142 187.422684,113.606323 188.907211,113.977142 188.907211,113.977142 
	190.762878,115.460411 193.731964,116.572853 200.783508,118.426941 204.494843,119.910210 
	207.835052,121.022659 210.804123,122.876740 211.917526,123.989197 212.659805,124.730827 
	212.659805,124.730827 213.030930,127.697365 213.030930,133.630432 212.288666,151.429642 
	208.577316,205.198090 206.721649,234.863449 204.865982,262.674713 204.123703,286.407013 
	203.752579,295.677429 203.752579,302.722931 203.752579,302.722931 Z"
	style="fill-opacity:1.0; fill-rule:nonzero; fill:darkgray; stroke-width:1.483902; stroke-linecap:round; stroke-linejoin:round; stroke-dasharray:none; stroke:dimgray" />
<path d="M221.195877,343.883606L
	201.896896,343.883606 201.896896,343.883606 202.268036,320.151337 202.639175,290.115143 
	202.639175,290.115143 208.206192,290.856812 215.257721,290.856812 221.567001,290.856812 
	224.164948,290.485992 226.020615,289.744324 226.020615,289.744324 221.195877,343.883606 
	221.195877,343.883606 Z"
	style="fill-opacity:1.0; fill-rule:nonzero; fill:darkgray; stroke-width:1.483902; stroke-linecap:round; stroke-linejoin:round; stroke-dasharray:none; stroke:dimgray" />
<path d="M230.103104,120.651840L
	224.536087,343.883606 216.742279,343.883606 220.082489,112.864685 230.103104,120.651840 Z"
	style="fill-opacity:1.0; fill-rule:nonzero; fill:darkgray; stroke-width:1.483902; stroke-linecap:round; stroke-linejoin:round; stroke-dasharray:none; stroke:dimgray" />
<path d="M221.195877,111.752243L
	208.948456,343.883606 199.670105,343.883606 210.804123,114.718773 221.195877,111.752243 Z"
	style="fill-opacity:1.0; fill-rule:nonzero; fill:darkgray; stroke-width:1.483902; stroke-linecap:round; stroke-linejoin:round; stroke-dasharray:none; stroke:dimgray" />
<path d="M221.195877,111.752243L
	221.195877,111.752243 220.824738,113.977142 218.969070,118.056122 217.855667,120.651840 
	216.742279,122.505928 215.257721,124.360008 214.144333,124.730827 214.144333,124.730827 
	211.917526,124.730827 207.463913,123.989197 195.587631,121.393478 189.649490,120.281029 
	184.082474,119.539391 180.000000,119.168571 178.515457,119.168571 177.773193,119.539391 
	177.773193,119.539391 171.835052,125.472466 160.701035,135.484512 154.391754,140.675949 
	148.824738,145.125748 146.226807,146.609024 144.000000,147.721481 142.144333,148.463104 
	140.659790,148.463104 140.659790,148.463104 136.577316,147.721481 132.494843,146.979843 
	130.268036,146.238220 128.412369,145.496582 126.556709,144.013306 125.072159,142.530045 
	125.072159,142.530045 122.845360,139.563507 119.505157,134.372070 115.422684,127.697365 
	111.340202,120.281029 107.628860,112.493874 104.288658,105.077530 103.175255,101.369362 
	102.432991,98.402832 102.061852,95.436295 102.061852,93.211388 102.061852,93.211388 
	102.804123,89.132408 104.288658,85.795052 106.144333,82.457703 108.371140,80.232796 
	110.969078,78.007896 113.938141,76.524628 116.536079,75.782997 118.762886,75.782997 
	118.762886,75.782997 120.989693,76.153809 122.845360,76.895447 123.958763,78.007896 
	124.701027,78.749535 126.185570,80.232796 126.927826,80.603622 127.298965,80.603622 
	127.298965,80.603622 128.041245,79.491165 128.783508,77.637085 129.896912,72.445641 
	130.639175,69.849930 131.381439,67.625023 132.123718,66.141754 132.865982,66.141754 
	133.237122,66.141754 133.237122,66.141754 134.350510,67.625023 135.835052,70.220741 
	139.917526,78.007896 143.628876,85.053421 145.484543,87.649139 146.226807,88.019951 
	146.597931,88.390778 146.597931,88.390778 149.195877,88.019951 154.020615,86.907509 
	157.360825,86.536690 161.443298,86.165871 165.525772,86.165871 170.350525,86.536690 
	175.546387,87.278320 181.484543,88.390778 187.422684,90.244858 193.731964,92.840576 
	200.041229,96.177933 207.092789,100.256912 214.144333,105.448349 221.195877,111.752243 
	221.195877,111.752243 Z"
	style="fill-opacity:1.0; fill-rule:nonzero; fill:gainsboro; stroke-width:1.483902; stroke-linecap:round; stroke-linejoin:round; stroke-dasharray:none; stroke:dimgray" />
<path d="M221.567001,111.752243L
	221.567001,111.752243 221.567001,113.606323 222.309280,118.056122 223.051544,119.910210 
	223.793823,122.135109 224.907211,123.247566 225.278336,123.989197 226.020615,123.989197 
	226.020615,123.989197 240.123718,123.247566 248.659805,123.247566 251.999985,123.618378 
	253.113419,123.989197 253.855652,124.360008 253.855652,124.360008 261.278351,128.809814 
	275.010315,136.226151 282.432983,139.934326 289.113403,142.530045 294.680420,144.384125 
	296.907227,144.754929 298.020630,144.754929 298.020630,144.754929 300.247406,144.384125 
	302.845367,144.013306 308.041229,144.384125 310.639160,144.384125 313.237122,144.013306 
	315.092773,143.271667 316.206177,142.530045 316.948456,141.417587 316.948456,141.417587 
	319.175262,139.192688 322.144318,136.226151 323.628876,134.372070 325.113403,132.147171 
	326.597931,129.551437 327.711334,126.584908 327.711334,126.584908 328.824738,123.247566 
	329.195892,119.539391 329.567017,115.831223 329.938141,112.123055 329.567017,105.077530 
	328.824738,99.886101 328.824738,99.886101 328.453613,98.032013 327.340210,96.177933 
	326.597931,94.323845 325.113403,93.211388 323.628876,91.728119 322.144318,90.615677 
	318.432983,89.132408 314.721649,88.019951 311.010284,87.278320 307.670105,87.278320 
	305.072174,87.649139 305.072174,87.649139 303.587616,84.682602 302.474243,80.603622 
	301.360840,71.704010 299.876282,64.287674 299.505157,62.433586 299.134003,62.062771 
	298.391754,62.062771 298.391754,62.062771 295.793793,64.658485 293.195862,67.995842 
	290.597961,72.074829 288.000000,76.524628 283.546387,84.311783 281.319580,86.907509 
	279.463928,88.761589 279.463928,88.761589 278.721649,88.761589 277.608246,88.761589 
	274.268036,88.390778 269.072144,88.019951 265.731964,88.390778 262.020630,88.761589 
	258.309265,89.503220 253.855652,90.615677 249.402054,92.469757 244.206192,94.694664 
	239.010315,98.032013 233.443314,101.740173 227.505157,106.189987 221.567001,111.752243 
	221.567001,111.752243 Z"
	style="fill-opacity:1.0; fill-rule:nonzero; fill:gainsboro; stroke-width:1.483902; stroke-linecap:round; stroke-linejoin:round; stroke-dasharray:none; stroke:dimgray" />
</svg>
